<?xml version="1.0" encoding="utf-8"?>
<!-- Generator: Adobe Illustrator 18.1.1, SVG Export Plug-In . SVG Version: 6.00 Build 0)  -->
<svg version="1.1" id="Layer_1" xmlns="http://www.w3.org/2000/svg" xmlns:xlink="http://www.w3.org/1999/xlink" x="0px" y="0px"
	 viewBox="0 0 608.3 608.2" enable-background="new 0 0 608.3 608.2" xml:space="preserve">
<g>
	<path d="M536,0H72.3C32.4,0,0,32.3,0,72.1v464c0,39.9,32.4,72.1,72.3,72.1H536c39.9,0,72.3-32.3,72.3-72.1v-464
		C608.3,32.3,576,0,536,0z M422.5,86.3c0-9.4,7.6-17,17-17h82.3c9.4,0,17,7.6,17,17v82c0,9.4-7.6,17-17,17h-82.3
		c-9.4,0-17-7.6-17-17L422.5,86.3L422.5,86.3z M304.9,188.1c64.6,0,117,52.3,117,116.8s-52.4,116.8-117,116.8s-117-52.3-117-116.8
		S240.3,188.1,304.9,188.1z M540.3,520.6c0,9.4-7.6,17-17,17H86.5c-9.4,0-17-7.6-17-17V256.1h56.9c-4.3,15.5-6.6,31.9-6.6,48.8
		c0,101.8,83,184.6,185.1,184.6S490,406.6,490,304.9c0-16.9-2.3-33.3-6.6-48.8h56.9V520.6z"/>
</g>
</svg>
