<?xml version="1.0" encoding="UTF-8"?>
<svg viewBox="0 0 44 44" version="1.1" xmlns="http://www.w3.org/2000/svg" xmlns:xlink="http://www.w3.org/1999/xlink">
    <g stroke="none" stroke-width="1" fill="none" fill-rule="evenodd">
        <g transform="translate(-806.000000, -45.000000)">
            <g>
                <g>
                    <g transform="translate(414.000000, 45.000000)">
                        <g transform="translate(392.000000, 0.000000)">
                            <g>
                                <circle fill="#FFFFFF" cx="22" cy="22" r="22"></circle>
                                <path d="M16.6171675,34.3138033 L16.6171675,34.3138033 C16.6424803,34.4939115 16.7724023,34.6417535 16.9477648,34.6900002 L17.0731637,34.6900002 L17.0731638,34.6900002 C17.2387531,34.6847289 17.391603,34.5998121 17.4835604,34.4620021 L17.4835607,34.4620017 C18.5819918,33.1037028 19.4275982,31.5592092 19.9801402,29.902039 C20.0827394,29.5258421 20.4247366,28.1692531 20.6755345,27.2002611 L20.6755345,27.2002611 C20.7155554,27.0480336 20.8714032,26.9570726 21.0236295,26.9970943 C21.0631188,27.0074761 21.0999162,27.0262219 21.1315303,27.0520626 L21.1315308,27.0520629 C21.9543441,27.6983806 22.9694124,28.0514472 24.0157072,28.0552547 C28.4616708,28.0552547 31.6878444,23.985488 31.6878444,18.3881337 C31.6878444,14.3867665 28.3362718,10.2600002 22.7275177,10.2600002 C16.468969,10.2942004 12.6500002,14.7857632 12.6500002,19.0835281 C12.6500002,21.7625062 13.7899909,23.8144894 15.6367758,24.5782831 L15.6367758,24.5782832 C16.0096143,24.7617533 16.4605912,24.6082406 16.6440624,24.2354025 C16.6741286,24.1743037 16.695761,24.1094061 16.7083674,24.0424875 L16.9819651,22.9024969 L16.9819651,22.9024969 C17.1180937,22.5415132 17.0184755,22.1339824 16.7311672,21.8765053 L16.731167,21.8765051 C16.1549428,21.1712122 15.8586877,20.2783863 15.8989738,19.3685256 L15.8989736,19.3684848 C15.8778029,15.9246413 18.6524272,13.1156929 22.0962706,13.0945232 C22.1851193,13.0939771 22.2739701,13.0953299 22.3627606,13.0985808 C25.7029332,13.0985808 27.7777162,15.0023652 27.7777162,18.0689402 C27.7777162,22.0589075 26.0335305,25.0684829 23.7193494,25.0684829 L23.7193495,25.0684829 C23.1351225,25.0998049 22.5671495,24.8701143 22.1689166,24.4414869 L22.1689166,24.441487 C21.8218066,23.9961143 21.7036443,23.4137398 21.8497192,22.8682998 C21.997918,22.2527049 22.1917164,21.6143101 22.3855149,20.9873152 L22.3855149,20.987315 C22.7415534,20.0070051 22.9639496,18.9832114 23.0467095,17.9435399 L23.0467096,17.9435394 C23.1478234,16.7894927 22.2942564,15.771994 21.140212,15.6708768 C21.0615167,15.6639817 20.9824943,15.6615378 20.9035237,15.6635566 C19.2619371,15.6635566 17.9851476,17.2937433 17.9851476,19.4369258 L17.9851474,19.4370655 C17.9842803,20.1335554 18.1078366,20.8246052 18.3499923,21.4776375 L18.3499923,21.4776375 C18.3826518,21.5854168 18.3826518,21.7004555 18.3499923,21.8082348 L16.6627605,29.0014506 L16.6627608,29.0014488 C16.3369264,30.7559286 16.3214921,32.5539789 16.6171602,34.3138053 L16.6171675,34.3138033 Z" fill="#00A8CB" fill-rule="nonzero"></path>
                            </g>
                        </g>
                    </g>
                </g>
            </g>
        </g>
    </g>
</svg>
